<svg width="32" height="32" viewBox="0 0 32 32" fill="none" xmlns="http://www.w3.org/2000/svg">
  <!-- Dark background -->
  <rect width="32" height="32" rx="6" fill="#1F2937"/>
  
  <!-- Chart grid lines -->
  <line x1="4" y1="26" x2="28" y2="26" stroke="#374151" stroke-width="0.5"/>
  <line x1="4" y1="20" x2="28" y2="20" stroke="#374151" stroke-width="0.5"/>
  <line x1="4" y1="14" x2="28" y2="14" stroke="#374151" stroke-width="0.5"/>
  <line x1="4" y1="8" x2="28" y2="8" stroke="#374151" stroke-width="0.5"/>
  
  <!-- Chart bars with gradient -->
  <defs>
    <linearGradient id="barGradient" x1="0%" y1="0%" x2="0%" y2="100%">
      <stop offset="0%" style="stop-color:#10B981;stop-opacity:1" />
      <stop offset="100%" style="stop-color:#059669;stop-opacity:1" />
    </linearGradient>
  </defs>
  
  <rect x="6" y="22" width="2.5" height="4" fill="url(#barGradient)" rx="1"/>
  <rect x="9.5" y="18" width="2.5" height="8" fill="url(#barGradient)" rx="1"/>
  <rect x="13" y="12" width="2.5" height="14" fill="url(#barGradient)" rx="1"/>
  <rect x="16.5" y="8" width="2.5" height="18" fill="url(#barGradient)" rx="1"/>
  <rect x="20" y="16" width="2.5" height="10" fill="url(#barGradient)" rx="1"/>
  
  <!-- Trend line -->
  <path d="M7.25 24 L10.75 20 L14.25 14 L17.75 10 L21.25 18" stroke="#3B82F6" stroke-width="1.5" fill="none" stroke-linecap="round" stroke-linejoin="round"/>
  
  <!-- Data points -->
  <circle cx="7.25" cy="24" r="1.5" fill="#3B82F6"/>
  <circle cx="10.75" cy="20" r="1.5" fill="#3B82F6"/>
  <circle cx="14.25" cy="14" r="1.5" fill="#3B82F6"/>
  <circle cx="17.75" cy="10" r="1.5" fill="#3B82F6"/>
  <circle cx="21.25" cy="18" r="1.5" fill="#3B82F6"/>
</svg>
